<mxfile host="Electron" agent="Mozilla/5.0 (Windows NT 10.0; Win64; x64) AppleWebKit/537.36 (KHTML, like Gecko) draw.io/24.7.17 Chrome/128.0.6613.36 Electron/32.0.1 Safari/537.36" version="24.7.17">
  <diagram name="Page-1" id="YXqGyH-d2a1MkjHtLs1o">
    <mxGraphModel dx="1221" dy="765" grid="1" gridSize="10" guides="1" tooltips="1" connect="1" arrows="1" fold="1" page="1" pageScale="1" pageWidth="850" pageHeight="1100" math="0" shadow="0">
      <root>
        <mxCell id="0" />
        <mxCell id="1" parent="0" />
        <mxCell id="-rx3Ei2t6T_WKlXunHSZ-1" value="" style="endArrow=classic;startArrow=classic;html=1;rounded=0;labelBackgroundColor=none;strokeColor=#E07A5F;fontColor=default;strokeWidth=3;" parent="1" edge="1">
          <mxGeometry width="50" height="50" relative="1" as="geometry">
            <mxPoint x="40" y="400" as="sourcePoint" />
            <mxPoint x="40" y="120" as="targetPoint" />
          </mxGeometry>
        </mxCell>
        <mxCell id="-rx3Ei2t6T_WKlXunHSZ-3" value="Высокий дух" style="text;html=1;align=center;verticalAlign=middle;resizable=0;points=[];autosize=1;strokeColor=none;fillColor=none;labelBackgroundColor=none;fontColor=#393C56;fontStyle=1" parent="1" vertex="1">
          <mxGeometry x="40" y="120" width="90" height="30" as="geometry" />
        </mxCell>
        <mxCell id="-rx3Ei2t6T_WKlXunHSZ-4" value="Низкий дух" style="text;html=1;align=center;verticalAlign=middle;resizable=0;points=[];autosize=1;strokeColor=none;fillColor=none;labelBackgroundColor=none;fontColor=#393C56;fontStyle=1" parent="1" vertex="1">
          <mxGeometry x="40" y="370" width="90" height="30" as="geometry" />
        </mxCell>
        <mxCell id="-rx3Ei2t6T_WKlXunHSZ-5" value="" style="endArrow=none;html=1;rounded=0;labelBackgroundColor=none;strokeColor=#E07A5F;fontColor=default;strokeWidth=3;" parent="1" edge="1">
          <mxGeometry width="50" height="50" relative="1" as="geometry">
            <mxPoint x="40" y="240" as="sourcePoint" />
            <mxPoint x="1160.666748046875" y="240" as="targetPoint" />
          </mxGeometry>
        </mxCell>
        <mxCell id="-rx3Ei2t6T_WKlXunHSZ-6" value="&lt;b&gt;След упавшей Звезды&lt;/b&gt;" style="text;html=1;align=center;verticalAlign=middle;resizable=0;points=[];autosize=1;strokeColor=none;fillColor=none;labelBackgroundColor=none;fontColor=#393C56;" parent="1" vertex="1">
          <mxGeometry x="1155" y="225" width="160" height="30" as="geometry" />
        </mxCell>
        <mxCell id="-rx3Ei2t6T_WKlXunHSZ-15" style="rounded=0;orthogonalLoop=1;jettySize=auto;html=1;labelBackgroundColor=none;strokeColor=#E07A5F;fontColor=default;" parent="1" source="-rx3Ei2t6T_WKlXunHSZ-7" target="-rx3Ei2t6T_WKlXunHSZ-9" edge="1">
          <mxGeometry relative="1" as="geometry" />
        </mxCell>
        <mxCell id="-rx3Ei2t6T_WKlXunHSZ-7" value="&lt;b&gt;Исчезающий Звездопад&lt;/b&gt; - детство, основа для всего." style="rounded=1;whiteSpace=wrap;html=1;labelBackgroundColor=none;fillColor=#F2CC8F;strokeColor=#E07A5F;fontColor=#393C56;" parent="1" vertex="1">
          <mxGeometry x="40" y="260" width="120" height="60" as="geometry" />
        </mxCell>
        <mxCell id="-rx3Ei2t6T_WKlXunHSZ-16" style="edgeStyle=none;shape=connector;rounded=0;orthogonalLoop=1;jettySize=auto;html=1;strokeColor=#E07A5F;align=center;verticalAlign=middle;fontFamily=Helvetica;fontSize=11;fontColor=default;labelBackgroundColor=none;endArrow=classic;" parent="1" source="-rx3Ei2t6T_WKlXunHSZ-9" target="-rx3Ei2t6T_WKlXunHSZ-10" edge="1">
          <mxGeometry relative="1" as="geometry" />
        </mxCell>
        <mxCell id="-rx3Ei2t6T_WKlXunHSZ-9" value="&lt;b&gt;Кантерлот и Тени&lt;/b&gt; - обучение и поиск пути." style="rounded=1;whiteSpace=wrap;html=1;labelBackgroundColor=none;fillColor=#F2CC8F;strokeColor=#E07A5F;fontColor=#393C56;" parent="1" vertex="1">
          <mxGeometry x="200" y="210" width="120" height="60" as="geometry" />
        </mxCell>
        <mxCell id="-rx3Ei2t6T_WKlXunHSZ-17" style="edgeStyle=none;shape=connector;rounded=0;orthogonalLoop=1;jettySize=auto;html=1;strokeColor=#E07A5F;align=center;verticalAlign=middle;fontFamily=Helvetica;fontSize=11;fontColor=default;labelBackgroundColor=none;endArrow=classic;" parent="1" source="-rx3Ei2t6T_WKlXunHSZ-10" target="-rx3Ei2t6T_WKlXunHSZ-11" edge="1">
          <mxGeometry relative="1" as="geometry" />
        </mxCell>
        <mxCell id="-rx3Ei2t6T_WKlXunHSZ-10" value="&lt;b&gt;Крыло Ночи&lt;/b&gt; - иди за тьмой, ты окунёшься в неё." style="rounded=1;whiteSpace=wrap;html=1;labelBackgroundColor=none;fillColor=#F2CC8F;strokeColor=#E07A5F;fontColor=#393C56;" parent="1" vertex="1">
          <mxGeometry x="360" y="160" width="120" height="60" as="geometry" />
        </mxCell>
        <mxCell id="-rx3Ei2t6T_WKlXunHSZ-18" style="edgeStyle=none;shape=connector;rounded=0;orthogonalLoop=1;jettySize=auto;html=1;strokeColor=#E07A5F;align=center;verticalAlign=middle;fontFamily=Helvetica;fontSize=11;fontColor=default;labelBackgroundColor=none;endArrow=classic;" parent="1" source="-rx3Ei2t6T_WKlXunHSZ-11" target="-rx3Ei2t6T_WKlXunHSZ-12" edge="1">
          <mxGeometry relative="1" as="geometry" />
        </mxCell>
        <mxCell id="-rx3Ei2t6T_WKlXunHSZ-11" value="&lt;b&gt;Мир Людей&lt;/b&gt; - новое начало, старые проблемы." style="rounded=1;whiteSpace=wrap;html=1;labelBackgroundColor=none;fillColor=#F2CC8F;strokeColor=#E07A5F;fontColor=#393C56;" parent="1" vertex="1">
          <mxGeometry x="520" y="260" width="120" height="60" as="geometry" />
        </mxCell>
        <mxCell id="-rx3Ei2t6T_WKlXunHSZ-19" style="edgeStyle=none;shape=connector;rounded=0;orthogonalLoop=1;jettySize=auto;html=1;strokeColor=#E07A5F;align=center;verticalAlign=middle;fontFamily=Helvetica;fontSize=11;fontColor=default;labelBackgroundColor=none;endArrow=classic;" parent="1" source="-rx3Ei2t6T_WKlXunHSZ-12" target="-rx3Ei2t6T_WKlXunHSZ-13" edge="1">
          <mxGeometry relative="1" as="geometry" />
        </mxCell>
        <mxCell id="-rx3Ei2t6T_WKlXunHSZ-12" value="&lt;b&gt;Немыслимое &lt;/b&gt;- борьба за друзей чтобы оставить их." style="rounded=1;whiteSpace=wrap;html=1;labelBackgroundColor=none;fillColor=#F2CC8F;strokeColor=#E07A5F;fontColor=#393C56;" parent="1" vertex="1">
          <mxGeometry x="680" y="160" width="120" height="60" as="geometry" />
        </mxCell>
        <mxCell id="-rx3Ei2t6T_WKlXunHSZ-20" style="edgeStyle=none;shape=connector;rounded=0;orthogonalLoop=1;jettySize=auto;html=1;strokeColor=#E07A5F;align=center;verticalAlign=middle;fontFamily=Helvetica;fontSize=11;fontColor=default;labelBackgroundColor=none;endArrow=classic;" parent="1" source="-rx3Ei2t6T_WKlXunHSZ-13" target="-rx3Ei2t6T_WKlXunHSZ-14" edge="1">
          <mxGeometry relative="1" as="geometry" />
        </mxCell>
        <mxCell id="-rx3Ei2t6T_WKlXunHSZ-13" value="&lt;b&gt;Проклятая &lt;/b&gt;- вновь поиск пути, дальше в глубину." style="rounded=1;whiteSpace=wrap;html=1;labelBackgroundColor=none;fillColor=#F2CC8F;strokeColor=#E07A5F;fontColor=#393C56;" parent="1" vertex="1">
          <mxGeometry x="840" y="210" width="120" height="60" as="geometry" />
        </mxCell>
        <mxCell id="-rx3Ei2t6T_WKlXunHSZ-14" value="&lt;b&gt;Фолленстар &lt;/b&gt;- дальше будет только хуже." style="rounded=1;whiteSpace=wrap;html=1;labelBackgroundColor=none;fillColor=#F2CC8F;strokeColor=#E07A5F;fontColor=#393C56;" parent="1" vertex="1">
          <mxGeometry x="1000" y="160" width="120" height="60" as="geometry" />
        </mxCell>
        <mxCell id="-rx3Ei2t6T_WKlXunHSZ-21" value="" style="endArrow=classic;startArrow=classic;html=1;rounded=0;labelBackgroundColor=none;strokeColor=#E07A5F;fontColor=default;strokeWidth=3;" parent="1" edge="1">
          <mxGeometry width="50" height="50" relative="1" as="geometry">
            <mxPoint x="40" y="760" as="sourcePoint" />
            <mxPoint x="40" y="480" as="targetPoint" />
          </mxGeometry>
        </mxCell>
        <mxCell id="-rx3Ei2t6T_WKlXunHSZ-22" value="" style="endArrow=none;html=1;rounded=0;labelBackgroundColor=none;strokeColor=#E07A5F;fontColor=default;strokeWidth=3;" parent="1" edge="1">
          <mxGeometry width="50" height="50" relative="1" as="geometry">
            <mxPoint x="40" y="600" as="sourcePoint" />
            <mxPoint x="1640" y="600" as="targetPoint" />
          </mxGeometry>
        </mxCell>
        <mxCell id="-rx3Ei2t6T_WKlXunHSZ-23" value="Высокий дух" style="text;html=1;align=center;verticalAlign=middle;resizable=0;points=[];autosize=1;strokeColor=none;fillColor=none;labelBackgroundColor=none;fontColor=#393C56;fontStyle=1" parent="1" vertex="1">
          <mxGeometry x="40" y="480" width="90" height="30" as="geometry" />
        </mxCell>
        <mxCell id="-rx3Ei2t6T_WKlXunHSZ-24" value="Низкий дух" style="text;html=1;align=center;verticalAlign=middle;resizable=0;points=[];autosize=1;strokeColor=none;fillColor=none;labelBackgroundColor=none;fontColor=#393C56;fontStyle=1" parent="1" vertex="1">
          <mxGeometry x="40" y="730" width="90" height="30" as="geometry" />
        </mxCell>
        <mxCell id="-rx3Ei2t6T_WKlXunHSZ-25" value="&lt;b&gt;Восстание против Мира&lt;/b&gt;" style="text;html=1;align=center;verticalAlign=middle;resizable=0;points=[];autosize=1;strokeColor=none;fillColor=none;labelBackgroundColor=none;fontColor=#393C56;" parent="1" vertex="1">
          <mxGeometry x="1640" y="585" width="170" height="30" as="geometry" />
        </mxCell>
        <mxCell id="-rx3Ei2t6T_WKlXunHSZ-36" style="rounded=0;orthogonalLoop=1;jettySize=auto;html=1;strokeColor=#E07A5F;fontColor=#393C56;fillColor=#F2CC8F;" parent="1" source="-rx3Ei2t6T_WKlXunHSZ-26" target="-rx3Ei2t6T_WKlXunHSZ-27" edge="1">
          <mxGeometry relative="1" as="geometry" />
        </mxCell>
        <mxCell id="-rx3Ei2t6T_WKlXunHSZ-26" value="&lt;b&gt;Начало конца&lt;/b&gt;&amp;nbsp;- проблема юга, болезнь всей Эквестрии." style="rounded=1;whiteSpace=wrap;html=1;labelBackgroundColor=none;fillColor=#F2CC8F;strokeColor=#E07A5F;fontColor=#393C56;" parent="1" vertex="1">
          <mxGeometry x="40" y="520" width="120" height="60" as="geometry" />
        </mxCell>
        <mxCell id="-rx3Ei2t6T_WKlXunHSZ-37" style="edgeStyle=none;shape=connector;rounded=0;orthogonalLoop=1;jettySize=auto;html=1;strokeColor=#E07A5F;align=center;verticalAlign=middle;fontFamily=Helvetica;fontSize=11;fontColor=#393C56;labelBackgroundColor=default;endArrow=classic;fillColor=#F2CC8F;" parent="1" source="-rx3Ei2t6T_WKlXunHSZ-27" target="-rx3Ei2t6T_WKlXunHSZ-28" edge="1">
          <mxGeometry relative="1" as="geometry" />
        </mxCell>
        <mxCell id="-rx3Ei2t6T_WKlXunHSZ-27" value="&lt;b&gt;Битва без смысла&lt;/b&gt;&amp;nbsp;- катастрофы одна за одной, без цели." style="rounded=1;whiteSpace=wrap;html=1;labelBackgroundColor=none;fillColor=#F2CC8F;strokeColor=#E07A5F;fontColor=#393C56;" parent="1" vertex="1">
          <mxGeometry x="200" y="660" width="120" height="60" as="geometry" />
        </mxCell>
        <mxCell id="-rx3Ei2t6T_WKlXunHSZ-38" style="edgeStyle=none;shape=connector;rounded=0;orthogonalLoop=1;jettySize=auto;html=1;strokeColor=#E07A5F;align=center;verticalAlign=middle;fontFamily=Helvetica;fontSize=11;fontColor=#393C56;labelBackgroundColor=default;endArrow=classic;fillColor=#F2CC8F;" parent="1" source="-rx3Ei2t6T_WKlXunHSZ-28" target="-rx3Ei2t6T_WKlXunHSZ-29" edge="1">
          <mxGeometry relative="1" as="geometry" />
        </mxCell>
        <mxCell id="-rx3Ei2t6T_WKlXunHSZ-28" value="&lt;b&gt;Кристаллы и Шторм&lt;/b&gt;&amp;nbsp;- лишь передышка и нет конца." style="rounded=1;whiteSpace=wrap;html=1;labelBackgroundColor=none;fillColor=#F2CC8F;strokeColor=#E07A5F;fontColor=#393C56;" parent="1" vertex="1">
          <mxGeometry x="360" y="570" width="120" height="60" as="geometry" />
        </mxCell>
        <mxCell id="-rx3Ei2t6T_WKlXunHSZ-39" style="edgeStyle=none;shape=connector;rounded=0;orthogonalLoop=1;jettySize=auto;html=1;strokeColor=#E07A5F;align=center;verticalAlign=middle;fontFamily=Helvetica;fontSize=11;fontColor=#393C56;labelBackgroundColor=default;endArrow=classic;fillColor=#F2CC8F;" parent="1" source="-rx3Ei2t6T_WKlXunHSZ-29" target="-rx3Ei2t6T_WKlXunHSZ-30" edge="1">
          <mxGeometry relative="1" as="geometry" />
        </mxCell>
        <mxCell id="-rx3Ei2t6T_WKlXunHSZ-29" value="&lt;b&gt;Падение&lt;/b&gt;&amp;nbsp;- раскол всередине, враг внутри." style="rounded=1;whiteSpace=wrap;html=1;labelBackgroundColor=none;fillColor=#F2CC8F;strokeColor=#E07A5F;fontColor=#393C56;" parent="1" vertex="1">
          <mxGeometry x="520" y="620" width="120" height="60" as="geometry" />
        </mxCell>
        <mxCell id="-rx3Ei2t6T_WKlXunHSZ-40" style="edgeStyle=none;shape=connector;rounded=0;orthogonalLoop=1;jettySize=auto;html=1;strokeColor=#E07A5F;align=center;verticalAlign=middle;fontFamily=Helvetica;fontSize=11;fontColor=#393C56;labelBackgroundColor=default;endArrow=classic;fillColor=#F2CC8F;" parent="1" source="-rx3Ei2t6T_WKlXunHSZ-30" target="-rx3Ei2t6T_WKlXunHSZ-31" edge="1">
          <mxGeometry relative="1" as="geometry" />
        </mxCell>
        <mxCell id="-rx3Ei2t6T_WKlXunHSZ-30" value="&lt;b&gt;За Пределами&lt;/b&gt;&amp;nbsp;- враг или друг, всё теряет свой смысл." style="rounded=1;whiteSpace=wrap;html=1;labelBackgroundColor=none;fillColor=#F2CC8F;strokeColor=#E07A5F;fontColor=#393C56;" parent="1" vertex="1">
          <mxGeometry x="680" y="540" width="120" height="60" as="geometry" />
        </mxCell>
        <mxCell id="-rx3Ei2t6T_WKlXunHSZ-41" style="edgeStyle=none;shape=connector;rounded=0;orthogonalLoop=1;jettySize=auto;html=1;strokeColor=#E07A5F;align=center;verticalAlign=middle;fontFamily=Helvetica;fontSize=11;fontColor=#393C56;labelBackgroundColor=default;endArrow=classic;fillColor=#F2CC8F;" parent="1" source="-rx3Ei2t6T_WKlXunHSZ-31" target="-rx3Ei2t6T_WKlXunHSZ-32" edge="1">
          <mxGeometry relative="1" as="geometry" />
        </mxCell>
        <mxCell id="-rx3Ei2t6T_WKlXunHSZ-31" value="&lt;b&gt;Северная Пустошь &lt;/b&gt;- механический ужас против магического кошмара." style="rounded=1;whiteSpace=wrap;html=1;labelBackgroundColor=none;fillColor=#F2CC8F;strokeColor=#E07A5F;fontColor=#393C56;" parent="1" vertex="1">
          <mxGeometry x="840" y="500" width="120" height="60" as="geometry" />
        </mxCell>
        <mxCell id="-rx3Ei2t6T_WKlXunHSZ-42" style="edgeStyle=none;shape=connector;rounded=0;orthogonalLoop=1;jettySize=auto;html=1;strokeColor=#E07A5F;align=center;verticalAlign=middle;fontFamily=Helvetica;fontSize=11;fontColor=#393C56;labelBackgroundColor=default;endArrow=classic;fillColor=#F2CC8F;" parent="1" source="-rx3Ei2t6T_WKlXunHSZ-32" target="-rx3Ei2t6T_WKlXunHSZ-33" edge="1">
          <mxGeometry relative="1" as="geometry" />
        </mxCell>
        <mxCell id="-rx3Ei2t6T_WKlXunHSZ-32" value="&lt;b&gt;Шанс&lt;/b&gt;&amp;nbsp;- затишье пред бурей." style="rounded=1;whiteSpace=wrap;html=1;labelBackgroundColor=none;fillColor=#F2CC8F;strokeColor=#E07A5F;fontColor=#393C56;" parent="1" vertex="1">
          <mxGeometry x="1000" y="540" width="120" height="60" as="geometry" />
        </mxCell>
        <mxCell id="-rx3Ei2t6T_WKlXunHSZ-43" style="edgeStyle=none;shape=connector;rounded=0;orthogonalLoop=1;jettySize=auto;html=1;strokeColor=#E07A5F;align=center;verticalAlign=middle;fontFamily=Helvetica;fontSize=11;fontColor=#393C56;labelBackgroundColor=default;endArrow=classic;fillColor=#F2CC8F;" parent="1" source="-rx3Ei2t6T_WKlXunHSZ-33" target="-rx3Ei2t6T_WKlXunHSZ-34" edge="1">
          <mxGeometry relative="1" as="geometry" />
        </mxCell>
        <mxCell id="-rx3Ei2t6T_WKlXunHSZ-33" value="&lt;b&gt;Гибель уверенности 1 &lt;/b&gt;- битва пони против пони." style="rounded=1;whiteSpace=wrap;html=1;labelBackgroundColor=none;fillColor=#F2CC8F;strokeColor=#E07A5F;fontColor=#393C56;" parent="1" vertex="1">
          <mxGeometry x="1160" y="570" width="120" height="60" as="geometry" />
        </mxCell>
        <mxCell id="-rx3Ei2t6T_WKlXunHSZ-44" style="edgeStyle=none;shape=connector;rounded=0;orthogonalLoop=1;jettySize=auto;html=1;strokeColor=#E07A5F;align=center;verticalAlign=middle;fontFamily=Helvetica;fontSize=11;fontColor=#393C56;labelBackgroundColor=default;endArrow=classic;fillColor=#F2CC8F;" parent="1" source="-rx3Ei2t6T_WKlXunHSZ-34" target="-rx3Ei2t6T_WKlXunHSZ-35" edge="1">
          <mxGeometry relative="1" as="geometry" />
        </mxCell>
        <mxCell id="-rx3Ei2t6T_WKlXunHSZ-34" value="&lt;b&gt;Гибель уверенности 2&amp;nbsp;&lt;/b&gt;- конец, которого не ждали." style="rounded=1;whiteSpace=wrap;html=1;labelBackgroundColor=none;fillColor=#F2CC8F;strokeColor=#E07A5F;fontColor=#393C56;" parent="1" vertex="1">
          <mxGeometry x="1320" y="620" width="120" height="60" as="geometry" />
        </mxCell>
        <mxCell id="-rx3Ei2t6T_WKlXunHSZ-35" value="&lt;b&gt;Последний Шаг&lt;/b&gt;&amp;nbsp;- раненому нужен только толчёк, чтобы упасть во тьму." style="rounded=1;whiteSpace=wrap;html=1;labelBackgroundColor=none;fillColor=#F2CC8F;strokeColor=#E07A5F;fontColor=#393C56;" parent="1" vertex="1">
          <mxGeometry x="1480" y="570" width="120" height="60" as="geometry" />
        </mxCell>
        <mxCell id="-rx3Ei2t6T_WKlXunHSZ-45" value="" style="endArrow=none;dashed=1;html=1;dashPattern=1 3;strokeWidth=2;rounded=0;strokeColor=#E07A5F;align=center;verticalAlign=middle;fontFamily=Helvetica;fontSize=11;fontColor=#393C56;labelBackgroundColor=default;fillColor=#F2CC8F;" parent="1" edge="1">
          <mxGeometry width="50" height="50" relative="1" as="geometry">
            <mxPoint x="340" y="740" as="sourcePoint" />
            <mxPoint x="340" y="500" as="targetPoint" />
          </mxGeometry>
        </mxCell>
        <mxCell id="-rx3Ei2t6T_WKlXunHSZ-46" value="Становление&amp;nbsp;&lt;div&gt;Фолленстар&lt;/div&gt;" style="text;html=1;align=center;verticalAlign=middle;resizable=0;points=[];autosize=1;strokeColor=none;fillColor=none;fontFamily=Helvetica;fontSize=11;fontColor=#393C56;labelBackgroundColor=default;" parent="1" vertex="1">
          <mxGeometry x="350" y="340" width="90" height="40" as="geometry" />
        </mxCell>
        <mxCell id="-rx3Ei2t6T_WKlXunHSZ-47" value="Побег в другой мир" style="text;html=1;align=center;verticalAlign=middle;resizable=0;points=[];autosize=1;strokeColor=none;fillColor=none;fontFamily=Helvetica;fontSize=11;fontColor=#393C56;labelBackgroundColor=default;" parent="1" vertex="1">
          <mxGeometry x="440" y="350" width="120" height="30" as="geometry" />
        </mxCell>
        <mxCell id="-rx3Ei2t6T_WKlXunHSZ-49" value="" style="endArrow=none;dashed=1;html=1;dashPattern=1 3;strokeWidth=2;rounded=0;strokeColor=#E07A5F;align=center;verticalAlign=middle;fontFamily=Helvetica;fontSize=11;fontColor=#393C56;labelBackgroundColor=default;fillColor=#F2CC8F;" parent="1" edge="1">
          <mxGeometry width="50" height="50" relative="1" as="geometry">
            <mxPoint x="820" y="370" as="sourcePoint" />
            <mxPoint x="820" y="130" as="targetPoint" />
          </mxGeometry>
        </mxCell>
        <mxCell id="-rx3Ei2t6T_WKlXunHSZ-50" value="Конец наивности" style="text;html=1;align=center;verticalAlign=middle;resizable=0;points=[];autosize=1;strokeColor=none;fillColor=none;fontFamily=Helvetica;fontSize=11;fontColor=#393C56;labelBackgroundColor=default;" parent="1" vertex="1">
          <mxGeometry x="710" y="340" width="110" height="30" as="geometry" />
        </mxCell>
        <mxCell id="-rx3Ei2t6T_WKlXunHSZ-51" value="Развите&amp;nbsp;&lt;div&gt;техномагии&lt;/div&gt;" style="text;html=1;align=center;verticalAlign=middle;resizable=0;points=[];autosize=1;strokeColor=none;fillColor=none;fontFamily=Helvetica;fontSize=11;fontColor=#393C56;labelBackgroundColor=default;" parent="1" vertex="1">
          <mxGeometry x="820" y="330" width="80" height="40" as="geometry" />
        </mxCell>
        <mxCell id="-rx3Ei2t6T_WKlXunHSZ-52" value="" style="endArrow=none;dashed=1;html=1;dashPattern=1 3;strokeWidth=2;rounded=0;strokeColor=#E07A5F;align=center;verticalAlign=middle;fontFamily=Helvetica;fontSize=11;fontColor=#393C56;labelBackgroundColor=default;fillColor=#F2CC8F;" parent="1" edge="1">
          <mxGeometry width="50" height="50" relative="1" as="geometry">
            <mxPoint x="980" y="370" as="sourcePoint" />
            <mxPoint x="980" y="130" as="targetPoint" />
          </mxGeometry>
        </mxCell>
        <mxCell id="-rx3Ei2t6T_WKlXunHSZ-53" value="Стихия&amp;nbsp;&lt;div&gt;разрушения&lt;/div&gt;" style="text;html=1;align=center;verticalAlign=middle;resizable=0;points=[];autosize=1;strokeColor=none;fillColor=none;fontFamily=Helvetica;fontSize=11;fontColor=#393C56;labelBackgroundColor=default;" parent="1" vertex="1">
          <mxGeometry x="980" y="330" width="90" height="40" as="geometry" />
        </mxCell>
        <mxCell id="-rx3Ei2t6T_WKlXunHSZ-55" style="edgeStyle=none;shape=connector;rounded=0;orthogonalLoop=1;jettySize=auto;html=1;strokeColor=#E07A5F;align=center;verticalAlign=middle;fontFamily=Helvetica;fontSize=11;fontColor=#393C56;labelBackgroundColor=default;endArrow=classic;fillColor=#F2CC8F;" parent="1" source="-rx3Ei2t6T_WKlXunHSZ-54" edge="1">
          <mxGeometry relative="1" as="geometry">
            <mxPoint x="100" y="240" as="targetPoint" />
          </mxGeometry>
        </mxCell>
        <mxCell id="-rx3Ei2t6T_WKlXunHSZ-54" value="Превращение" style="text;html=1;align=center;verticalAlign=middle;resizable=0;points=[];autosize=1;strokeColor=none;fillColor=none;fontFamily=Helvetica;fontSize=11;fontColor=#393C56;labelBackgroundColor=default;" parent="1" vertex="1">
          <mxGeometry x="50" y="180" width="100" height="30" as="geometry" />
        </mxCell>
        <mxCell id="-rx3Ei2t6T_WKlXunHSZ-57" style="edgeStyle=none;shape=connector;rounded=0;orthogonalLoop=1;jettySize=auto;html=1;strokeColor=#E07A5F;align=center;verticalAlign=middle;fontFamily=Helvetica;fontSize=11;fontColor=#393C56;labelBackgroundColor=default;endArrow=classic;fillColor=#F2CC8F;" parent="1" source="-rx3Ei2t6T_WKlXunHSZ-56" edge="1">
          <mxGeometry relative="1" as="geometry">
            <mxPoint x="355" y="240" as="targetPoint" />
          </mxGeometry>
        </mxCell>
        <mxCell id="-rx3Ei2t6T_WKlXunHSZ-56" value="Тёмная магия" style="text;html=1;align=center;verticalAlign=middle;resizable=0;points=[];autosize=1;strokeColor=none;fillColor=none;fontFamily=Helvetica;fontSize=11;fontColor=#393C56;labelBackgroundColor=default;" parent="1" vertex="1">
          <mxGeometry x="310" y="270" width="90" height="30" as="geometry" />
        </mxCell>
        <mxCell id="-rx3Ei2t6T_WKlXunHSZ-59" style="edgeStyle=none;shape=connector;rounded=0;orthogonalLoop=1;jettySize=auto;html=1;strokeColor=#E07A5F;align=center;verticalAlign=middle;fontFamily=Helvetica;fontSize=11;fontColor=#393C56;labelBackgroundColor=default;endArrow=classic;fillColor=#F2CC8F;" parent="1" source="-rx3Ei2t6T_WKlXunHSZ-58" edge="1">
          <mxGeometry relative="1" as="geometry">
            <mxPoint x="700" y="240" as="targetPoint" />
          </mxGeometry>
        </mxCell>
        <mxCell id="-rx3Ei2t6T_WKlXunHSZ-58" value="Техномагия" style="text;html=1;align=center;verticalAlign=middle;resizable=0;points=[];autosize=1;strokeColor=none;fillColor=none;fontFamily=Helvetica;fontSize=11;fontColor=#393C56;labelBackgroundColor=default;" parent="1" vertex="1">
          <mxGeometry x="660" y="270" width="80" height="30" as="geometry" />
        </mxCell>
        <mxCell id="-rx3Ei2t6T_WKlXunHSZ-61" style="edgeStyle=none;shape=connector;rounded=0;orthogonalLoop=1;jettySize=auto;html=1;strokeColor=#E07A5F;align=center;verticalAlign=middle;fontFamily=Helvetica;fontSize=11;fontColor=#393C56;labelBackgroundColor=default;endArrow=classic;fillColor=#F2CC8F;" parent="1" source="-rx3Ei2t6T_WKlXunHSZ-60" edge="1">
          <mxGeometry relative="1" as="geometry">
            <mxPoint x="1100" y="240" as="targetPoint" />
          </mxGeometry>
        </mxCell>
        <mxCell id="-rx3Ei2t6T_WKlXunHSZ-60" value="Мейнхеттенсая&lt;div&gt;катастрофа&lt;/div&gt;" style="text;html=1;align=center;verticalAlign=middle;resizable=0;points=[];autosize=1;strokeColor=none;fillColor=none;fontFamily=Helvetica;fontSize=11;fontColor=#393C56;labelBackgroundColor=default;" parent="1" vertex="1">
          <mxGeometry x="1050" y="265" width="100" height="40" as="geometry" />
        </mxCell>
        <mxCell id="-rx3Ei2t6T_WKlXunHSZ-62" value="Тень &lt;br&gt;восстания" style="text;html=1;align=center;verticalAlign=middle;resizable=0;points=[];autosize=1;strokeColor=none;fillColor=none;fontFamily=Helvetica;fontSize=11;fontColor=#393C56;labelBackgroundColor=default;" parent="1" vertex="1">
          <mxGeometry x="260" y="505" width="80" height="40" as="geometry" />
        </mxCell>
        <mxCell id="-rx3Ei2t6T_WKlXunHSZ-63" value="Открытое&lt;div&gt;восстание&lt;/div&gt;" style="text;html=1;align=center;verticalAlign=middle;resizable=0;points=[];autosize=1;strokeColor=none;fillColor=none;fontFamily=Helvetica;fontSize=11;fontColor=#393C56;labelBackgroundColor=default;" parent="1" vertex="1">
          <mxGeometry x="340" y="500" width="80" height="40" as="geometry" />
        </mxCell>
        <mxCell id="-rx3Ei2t6T_WKlXunHSZ-65" style="edgeStyle=none;shape=connector;rounded=0;orthogonalLoop=1;jettySize=auto;html=1;strokeColor=#E07A5F;align=center;verticalAlign=middle;fontFamily=Helvetica;fontSize=11;fontColor=#393C56;labelBackgroundColor=default;endArrow=classic;fillColor=#F2CC8F;" parent="1" source="-rx3Ei2t6T_WKlXunHSZ-64" edge="1">
          <mxGeometry relative="1" as="geometry">
            <mxPoint x="100" y="600" as="targetPoint" />
          </mxGeometry>
        </mxCell>
        <mxCell id="-rx3Ei2t6T_WKlXunHSZ-64" value="Мейнхеттенская&lt;div&gt;катастрофа&lt;/div&gt;" style="text;html=1;align=center;verticalAlign=middle;resizable=0;points=[];autosize=1;strokeColor=none;fillColor=none;fontFamily=Helvetica;fontSize=11;fontColor=#393C56;labelBackgroundColor=default;" parent="1" vertex="1">
          <mxGeometry x="45" y="630" width="110" height="40" as="geometry" />
        </mxCell>
        <mxCell id="-rx3Ei2t6T_WKlXunHSZ-67" style="edgeStyle=none;shape=connector;rounded=0;orthogonalLoop=1;jettySize=auto;html=1;strokeColor=#E07A5F;align=center;verticalAlign=middle;fontFamily=Helvetica;fontSize=11;fontColor=#393C56;labelBackgroundColor=default;endArrow=classic;fillColor=#F2CC8F;" parent="1" source="-rx3Ei2t6T_WKlXunHSZ-66" edge="1">
          <mxGeometry relative="1" as="geometry">
            <mxPoint x="280" y="600" as="targetPoint" />
          </mxGeometry>
        </mxCell>
        <mxCell id="-rx3Ei2t6T_WKlXunHSZ-66" value="Падение&lt;div&gt;Клаудсдейла&lt;/div&gt;" style="text;html=1;align=center;verticalAlign=middle;resizable=0;points=[];autosize=1;strokeColor=none;fillColor=none;fontFamily=Helvetica;fontSize=11;fontColor=#393C56;labelBackgroundColor=default;" parent="1" vertex="1">
          <mxGeometry x="235" y="545" width="90" height="40" as="geometry" />
        </mxCell>
        <mxCell id="-rx3Ei2t6T_WKlXunHSZ-69" style="edgeStyle=none;shape=connector;rounded=0;orthogonalLoop=1;jettySize=auto;html=1;entryX=0.75;entryY=0;entryDx=0;entryDy=0;strokeColor=#E07A5F;align=center;verticalAlign=middle;fontFamily=Helvetica;fontSize=11;fontColor=#393C56;labelBackgroundColor=default;endArrow=classic;fillColor=#F2CC8F;" parent="1" source="-rx3Ei2t6T_WKlXunHSZ-68" target="-rx3Ei2t6T_WKlXunHSZ-28" edge="1">
          <mxGeometry relative="1" as="geometry" />
        </mxCell>
        <mxCell id="-rx3Ei2t6T_WKlXunHSZ-68" value="Вирус" style="text;html=1;align=center;verticalAlign=middle;resizable=0;points=[];autosize=1;strokeColor=none;fillColor=none;fontFamily=Helvetica;fontSize=11;fontColor=#393C56;labelBackgroundColor=default;" parent="1" vertex="1">
          <mxGeometry x="425" y="530" width="50" height="30" as="geometry" />
        </mxCell>
        <mxCell id="-rx3Ei2t6T_WKlXunHSZ-71" style="edgeStyle=none;shape=connector;rounded=0;orthogonalLoop=1;jettySize=auto;html=1;strokeColor=#E07A5F;align=center;verticalAlign=middle;fontFamily=Helvetica;fontSize=11;fontColor=#393C56;labelBackgroundColor=default;endArrow=classic;fillColor=#F2CC8F;" parent="1" source="-rx3Ei2t6T_WKlXunHSZ-70" edge="1">
          <mxGeometry relative="1" as="geometry">
            <mxPoint x="605" y="600" as="targetPoint" />
          </mxGeometry>
        </mxCell>
        <mxCell id="-rx3Ei2t6T_WKlXunHSZ-70" value="ОСП" style="text;html=1;align=center;verticalAlign=middle;resizable=0;points=[];autosize=1;strokeColor=none;fillColor=none;fontFamily=Helvetica;fontSize=11;fontColor=#393C56;labelBackgroundColor=default;" parent="1" vertex="1">
          <mxGeometry x="580" y="550" width="50" height="30" as="geometry" />
        </mxCell>
        <mxCell id="-rx3Ei2t6T_WKlXunHSZ-72" value="" style="endArrow=none;dashed=1;html=1;dashPattern=1 3;strokeWidth=2;rounded=0;strokeColor=#E07A5F;align=center;verticalAlign=middle;fontFamily=Helvetica;fontSize=11;fontColor=#393C56;labelBackgroundColor=default;fillColor=#F2CC8F;" parent="1" edge="1">
          <mxGeometry width="50" height="50" relative="1" as="geometry">
            <mxPoint x="660" y="740" as="sourcePoint" />
            <mxPoint x="660" y="500" as="targetPoint" />
          </mxGeometry>
        </mxCell>
        <mxCell id="-rx3Ei2t6T_WKlXunHSZ-73" value="Первые&lt;div&gt;сражения&lt;/div&gt;" style="text;html=1;align=center;verticalAlign=middle;resizable=0;points=[];autosize=1;strokeColor=none;fillColor=none;fontFamily=Helvetica;fontSize=11;fontColor=#393C56;labelBackgroundColor=default;" parent="1" vertex="1">
          <mxGeometry x="590" y="500" width="70" height="40" as="geometry" />
        </mxCell>
        <mxCell id="-rx3Ei2t6T_WKlXunHSZ-74" value="Полёт на север" style="text;html=1;align=center;verticalAlign=middle;resizable=0;points=[];autosize=1;strokeColor=none;fillColor=none;fontFamily=Helvetica;fontSize=11;fontColor=#393C56;labelBackgroundColor=default;" parent="1" vertex="1">
          <mxGeometry x="660" y="500" width="100" height="30" as="geometry" />
        </mxCell>
        <mxCell id="-rx3Ei2t6T_WKlXunHSZ-76" style="edgeStyle=none;shape=connector;rounded=0;orthogonalLoop=1;jettySize=auto;html=1;strokeColor=#E07A5F;align=center;verticalAlign=middle;fontFamily=Helvetica;fontSize=11;fontColor=#393C56;labelBackgroundColor=default;endArrow=classic;fillColor=#F2CC8F;" parent="1" source="-rx3Ei2t6T_WKlXunHSZ-75" edge="1">
          <mxGeometry relative="1" as="geometry">
            <mxPoint x="900" y="600" as="targetPoint" />
          </mxGeometry>
        </mxCell>
        <mxCell id="-rx3Ei2t6T_WKlXunHSZ-75" value="Ледяные&lt;div&gt;конструкты&lt;/div&gt;" style="text;html=1;align=center;verticalAlign=middle;resizable=0;points=[];autosize=1;strokeColor=none;fillColor=none;fontFamily=Helvetica;fontSize=11;fontColor=#393C56;labelBackgroundColor=default;" parent="1" vertex="1">
          <mxGeometry x="860" y="630" width="80" height="40" as="geometry" />
        </mxCell>
        <mxCell id="-rx3Ei2t6T_WKlXunHSZ-77" value="" style="endArrow=none;dashed=1;html=1;dashPattern=1 3;strokeWidth=2;rounded=0;strokeColor=#E07A5F;align=center;verticalAlign=middle;fontFamily=Helvetica;fontSize=11;fontColor=#393C56;labelBackgroundColor=default;fillColor=#F2CC8F;" parent="1" edge="1">
          <mxGeometry width="50" height="50" relative="1" as="geometry">
            <mxPoint x="1030" y="740" as="sourcePoint" />
            <mxPoint x="1030" y="500" as="targetPoint" />
          </mxGeometry>
        </mxCell>
        <mxCell id="-rx3Ei2t6T_WKlXunHSZ-78" value="Символ грядущего" style="text;html=1;align=center;verticalAlign=middle;resizable=0;points=[];autosize=1;strokeColor=none;fillColor=none;fontFamily=Helvetica;fontSize=11;fontColor=#393C56;labelBackgroundColor=default;" parent="1" vertex="1">
          <mxGeometry x="910" y="710" width="120" height="30" as="geometry" />
        </mxCell>
        <mxCell id="-rx3Ei2t6T_WKlXunHSZ-79" value="Битва за Понивиль" style="text;html=1;align=center;verticalAlign=middle;resizable=0;points=[];autosize=1;strokeColor=none;fillColor=none;fontFamily=Helvetica;fontSize=11;fontColor=#393C56;labelBackgroundColor=default;" parent="1" vertex="1">
          <mxGeometry x="1030" y="710" width="120" height="30" as="geometry" />
        </mxCell>
        <mxCell id="-rx3Ei2t6T_WKlXunHSZ-81" style="edgeStyle=none;shape=connector;rounded=0;orthogonalLoop=1;jettySize=auto;html=1;strokeColor=#E07A5F;align=center;verticalAlign=middle;fontFamily=Helvetica;fontSize=11;fontColor=#393C56;labelBackgroundColor=default;endArrow=classic;fillColor=#F2CC8F;" parent="1" source="-rx3Ei2t6T_WKlXunHSZ-80" edge="1">
          <mxGeometry relative="1" as="geometry">
            <mxPoint x="1360" y="600" as="targetPoint" />
          </mxGeometry>
        </mxCell>
        <mxCell id="-rx3Ei2t6T_WKlXunHSZ-80" value="Второй&lt;div&gt;флот&lt;/div&gt;" style="text;html=1;align=center;verticalAlign=middle;resizable=0;points=[];autosize=1;strokeColor=none;fillColor=none;fontFamily=Helvetica;fontSize=11;fontColor=#393C56;labelBackgroundColor=default;" parent="1" vertex="1">
          <mxGeometry x="1330" y="540" width="60" height="40" as="geometry" />
        </mxCell>
        <mxCell id="-rx3Ei2t6T_WKlXunHSZ-82" value="" style="endArrow=none;dashed=1;html=1;dashPattern=1 3;strokeWidth=2;rounded=0;strokeColor=#E07A5F;align=center;verticalAlign=middle;fontFamily=Helvetica;fontSize=11;fontColor=#393C56;labelBackgroundColor=default;fillColor=#F2CC8F;" parent="1" edge="1">
          <mxGeometry width="50" height="50" relative="1" as="geometry">
            <mxPoint x="1460" y="740" as="sourcePoint" />
            <mxPoint x="1460" y="500" as="targetPoint" />
          </mxGeometry>
        </mxCell>
        <mxCell id="-rx3Ei2t6T_WKlXunHSZ-83" value="Потеря за потерей" style="text;html=1;align=center;verticalAlign=middle;resizable=0;points=[];autosize=1;strokeColor=none;fillColor=none;fontFamily=Helvetica;fontSize=11;fontColor=#393C56;labelBackgroundColor=default;" parent="1" vertex="1">
          <mxGeometry x="1340" y="710" width="120" height="30" as="geometry" />
        </mxCell>
        <mxCell id="-rx3Ei2t6T_WKlXunHSZ-84" value="Битва конца времён" style="text;html=1;align=center;verticalAlign=middle;resizable=0;points=[];autosize=1;strokeColor=none;fillColor=none;fontFamily=Helvetica;fontSize=11;fontColor=#393C56;labelBackgroundColor=default;" parent="1" vertex="1">
          <mxGeometry x="1460" y="710" width="130" height="30" as="geometry" />
        </mxCell>
        <mxCell id="-rx3Ei2t6T_WKlXunHSZ-86" style="edgeStyle=none;shape=connector;rounded=0;orthogonalLoop=1;jettySize=auto;html=1;strokeColor=#E07A5F;align=center;verticalAlign=middle;fontFamily=Helvetica;fontSize=11;fontColor=#393C56;labelBackgroundColor=default;endArrow=classic;fillColor=#F2CC8F;" parent="1" source="-rx3Ei2t6T_WKlXunHSZ-85" edge="1">
          <mxGeometry relative="1" as="geometry">
            <mxPoint x="1625" y="600" as="targetPoint" />
          </mxGeometry>
        </mxCell>
        <mxCell id="-rx3Ei2t6T_WKlXunHSZ-85" value="Фолленстар&lt;div&gt;против&lt;/div&gt;&lt;div&gt;Твайлайт&lt;/div&gt;" style="text;html=1;align=center;verticalAlign=middle;resizable=0;points=[];autosize=1;strokeColor=none;fillColor=none;fontFamily=Helvetica;fontSize=11;fontColor=#393C56;labelBackgroundColor=default;" parent="1" vertex="1">
          <mxGeometry x="1580" y="640" width="90" height="50" as="geometry" />
        </mxCell>
        <mxCell id="-rx3Ei2t6T_WKlXunHSZ-88" style="edgeStyle=none;shape=connector;rounded=0;orthogonalLoop=1;jettySize=auto;html=1;strokeColor=#E07A5F;align=center;verticalAlign=middle;fontFamily=Helvetica;fontSize=11;fontColor=#393C56;labelBackgroundColor=default;endArrow=classic;fillColor=#F2CC8F;" parent="1" source="-rx3Ei2t6T_WKlXunHSZ-87" edge="1">
          <mxGeometry relative="1" as="geometry">
            <mxPoint x="1100" y="600" as="targetPoint" />
          </mxGeometry>
        </mxCell>
        <mxCell id="-rx3Ei2t6T_WKlXunHSZ-87" value="Речь преед&lt;div&gt;понивильцами&lt;/div&gt;" style="text;html=1;align=center;verticalAlign=middle;resizable=0;points=[];autosize=1;strokeColor=none;fillColor=none;fontFamily=Helvetica;fontSize=11;fontColor=#393C56;labelBackgroundColor=default;" parent="1" vertex="1">
          <mxGeometry x="1050" y="630" width="100" height="40" as="geometry" />
        </mxCell>
        <mxCell id="-rx3Ei2t6T_WKlXunHSZ-90" style="edgeStyle=none;shape=connector;rounded=0;orthogonalLoop=1;jettySize=auto;html=1;strokeColor=#E07A5F;align=center;verticalAlign=middle;fontFamily=Helvetica;fontSize=11;fontColor=#393C56;labelBackgroundColor=default;endArrow=classic;fillColor=#F2CC8F;entryX=0.294;entryY=-0.009;entryDx=0;entryDy=0;entryPerimeter=0;" parent="1" source="-rx3Ei2t6T_WKlXunHSZ-89" target="-rx3Ei2t6T_WKlXunHSZ-13" edge="1">
          <mxGeometry relative="1" as="geometry">
            <mxPoint x="875" y="200" as="targetPoint" />
          </mxGeometry>
        </mxCell>
        <mxCell id="-rx3Ei2t6T_WKlXunHSZ-89" value="Россыпь&lt;div&gt;Пудры&lt;/div&gt;" style="text;html=1;align=center;verticalAlign=middle;resizable=0;points=[];autosize=1;strokeColor=none;fillColor=none;fontFamily=Helvetica;fontSize=11;fontColor=#393C56;labelBackgroundColor=default;" parent="1" vertex="1">
          <mxGeometry x="840" y="150" width="70" height="40" as="geometry" />
        </mxCell>
        <mxCell id="-rx3Ei2t6T_WKlXunHSZ-91" value="" style="endArrow=none;dashed=1;html=1;dashPattern=1 3;strokeWidth=2;rounded=0;strokeColor=#E07A5F;align=center;verticalAlign=middle;fontFamily=Helvetica;fontSize=11;fontColor=#393C56;labelBackgroundColor=default;fillColor=#F2CC8F;" parent="1" edge="1">
          <mxGeometry width="50" height="50" relative="1" as="geometry">
            <mxPoint x="440" y="380" as="sourcePoint" />
            <mxPoint x="440" y="140" as="targetPoint" />
          </mxGeometry>
        </mxCell>
        <mxCell id="-rx3Ei2t6T_WKlXunHSZ-93" style="edgeStyle=none;shape=connector;rounded=0;orthogonalLoop=1;jettySize=auto;html=1;strokeColor=#E07A5F;align=center;verticalAlign=middle;fontFamily=Helvetica;fontSize=11;fontColor=#393C56;labelBackgroundColor=default;endArrow=classic;fillColor=#F2CC8F;" parent="1" source="-rx3Ei2t6T_WKlXunHSZ-92" edge="1">
          <mxGeometry relative="1" as="geometry">
            <mxPoint x="555" y="240" as="targetPoint" />
          </mxGeometry>
        </mxCell>
        <mxCell id="-rx3Ei2t6T_WKlXunHSZ-92" value="История&lt;div&gt;Сансет&lt;/div&gt;" style="text;html=1;align=center;verticalAlign=middle;resizable=0;points=[];autosize=1;strokeColor=none;fillColor=none;fontFamily=Helvetica;fontSize=11;fontColor=#393C56;labelBackgroundColor=default;" parent="1" vertex="1">
          <mxGeometry x="520" y="180" width="70" height="40" as="geometry" />
        </mxCell>
      </root>
    </mxGraphModel>
  </diagram>
</mxfile>
